# xmcd CD database file
#
# Track frame offsets:
#	150
#	17292
#	34317
#	51475
#
# Disc length: 911 seconds
#
# Revision: 0
# Processed by: cddbd v1.5PL3 Copyright (c) Steve Scherf et al.
# Submitted via: CDex 1.50beta8
#
DISCID=2b038d04
DTITLE=千葉紗子 - トゥインクル☆スター
DYEAR=2001
DGENRE=Anime
TTITLE0=トゥインクル☆スター
TTITLE1=ミラクルパワー
TTITLE2=トゥインクル☆スター(Original Karaoke)
TTITLE3=ミラクルパワー(Original Karaoke)
EXTD=YEAR: 2001
EXTT0=
EXTT1=
EXTT2=
EXTT3=
PLAYORDER=
